<?xml version="1.0" encoding="iso-8859-1"?>
<!-- Generator: Adobe Illustrator 18.0.0, SVG Export Plug-In . SVG Version: 6.00 Build 0)  -->
<!DOCTYPE svg PUBLIC "-//W3C//DTD SVG 1.1//EN" "http://www.w3.org/Graphics/SVG/1.1/DTD/svg11.dtd">
<svg version="1.1" id="Capa_1" xmlns="http://www.w3.org/2000/svg" xmlns:xlink="http://www.w3.org/1999/xlink" x="0px" y="0px"
	 viewBox="0 0 453.159 453.159" style="enable-background:new 0 0 453.159 453.159;" xml:space="preserve">
<path d="M389.545,181.996c-0.842-1.444-1.797-3.082-1.936-4.009c-0.204-1.355-0.098-3.063,0.014-4.871
	c0.187-3.015,0.398-6.433-0.671-9.938c-1.019-3.339-2.768-6.237-4.311-8.795c-0.906-1.502-1.762-2.92-2.402-4.293
	c-0.602-1.291-1.155-2.662-1.74-4.113c-1.208-2.997-2.458-6.095-4.37-9.101c-1.799-2.829-4.001-5.074-6.131-7.244
	c-1.239-1.264-2.41-2.457-3.412-3.681c-2.127-2.599-4.721-4.408-7.009-6.004c-1.511-1.055-2.938-2.051-4.04-3.131
	c-0.47-0.495-1.119-2.6-1.507-3.857c-0.981-3.185-2.203-7.147-5.538-9.822c-2.719-2.18-5.875-3.229-8.66-4.156
	c-1.842-0.613-3.583-1.192-4.731-1.951c-1.228-0.811-2.448-1.681-3.74-2.602c-2.548-1.815-5.182-3.693-8.154-5.311
	c-1.286-0.7-2.68-1.865-4.156-3.099c-2.182-1.824-4.656-3.892-7.733-5.259c-3.858-1.712-8.368-3.489-13.405-5.282
	c-2.901-1.031-5.822-1.532-8.648-2.016c-1.926-0.33-3.746-0.642-5.398-1.097c-1.559-0.43-3.156-0.958-4.847-1.517
	c-2.832-0.936-5.759-1.903-8.882-2.533c-1.543-0.311-3.122-0.692-4.794-1.097c-2.967-0.717-6.036-1.458-9.232-1.879
	c-3.166-0.418-6.361-0.53-9.452-0.64c-1.48-0.052-2.883-0.107-4.269-0.188l0.596-34.015c0.002-0.126,0-0.251-0.005-0.376
	c-0.39-8.631-6.524-16.099-14.921-18.161L177.999,0.173c-1.543-0.38-3.177-0.128-4.54,0.696c-1.361,0.825-2.338,2.157-2.717,3.703
	l-6.475,26.425c-0.789,3.218,1.181,6.466,4.399,7.255l34.133,8.37l2.597,21.721c-1.927-0.577-4.035-1.088-6.304-1.088
	c-0.632,0-1.259,0.04-1.864,0.12c-3.675,0.483-6.586,2.279-9.154,3.864c-1.504,0.929-3.06,1.889-4.127,2.104
	c-1.534,0.31-3.353,0.315-5.279,0.321c-2.698,0.009-5.755,0.02-8.865,0.877c-0.981,0.27-2.848,0.196-4.892,0.052
	c-1.201-0.085-2.442-0.173-3.738-0.173c-2.352,0-4.278,0.296-6.063,0.931c-3.236,1.151-5.823,3.138-8.106,4.89
	c-1.524,1.17-2.963,2.275-4.228,2.837c-3.187,1.415-5.562,3.614-7.658,5.556c-1.365,1.265-2.655,2.459-3.835,3.102
	c-1.383,0.752-3.091,1.316-4.898,1.914c-2.596,0.858-5.538,1.832-8.26,3.63c-1.109,0.732-2.852,1.277-4.698,1.854
	c-2.827,0.883-6.031,1.884-8.785,4.094c-2.823,2.263-4.551,5.197-6.075,7.785c-0.953,1.619-1.854,3.149-2.765,4.042
	c-2.555,2.506-4.005,5.456-5.285,8.059c-0.796,1.618-1.547,3.146-2.398,4.187c-0.764,0.934-2.223,1.873-3.768,2.868
	c-2.56,1.648-5.461,3.518-7.471,6.678c-0.815,1.281-1.973,2.614-3.198,4.026c-1.954,2.25-4.168,4.8-5.628,7.933
	c-1.577,3.383-1.747,6.899-1.896,10.002c-0.089,1.853-0.174,3.603-0.549,4.832c-1.072,3.514-0.849,6.861-0.651,9.814
	c0.117,1.759,0.228,3.42,0.025,4.768c-0.153,1.022-0.975,2.563-1.769,4.052c-1.44,2.699-3.231,6.058-3.231,10.081
	c0,4.749,1.443,9.063,2.716,12.87c0.706,2.112,1.373,4.106,1.749,5.992c1.383,6.947,4.546,11.8,9.954,15.272
	c2.981,1.913,7.617,4.456,13.431,4.456c1.397,0,2.809-0.158,4.208-0.452c0.558,42.979,7.37,81.199,20.301,113.654
	c10.891,27.336,26.106,50.675,45.223,69.368c32.756,32.031,65.354,39.227,66.725,39.518c0.41,0.087,0.827,0.13,1.244,0.13
	c0.404,0,0.809-0.041,1.207-0.122c1.372-0.282,33.986-7.267,66.755-39.201c19.121-18.635,34.339-41.963,45.231-69.338
	c12.741-32.019,19.55-69.693,20.282-112.075c0.816,0.135,1.641,0.227,2.473,0.227c0,0,0,0,0,0c5.69,0,10.379-3.054,14.146-5.508
	l1.031-0.668c4.042-2.595,9.601-6.974,11.202-15.015c0.372-1.868,1.207-3.975,2.09-6.204c1.512-3.813,3.225-8.137,3.225-12.904
	C393.176,188.227,391.162,184.773,389.545,181.996z M177.35,28.026l3.619-14.77L223.2,23.616c3.208,0.788,5.566,3.606,5.785,6.888
	l-0.637,36.318c-1.056,0.307-2.03,0.535-2.814,0.535c-2.93,0-5.612,0.632-8.02,1.263l-3.293-27.547
	c-0.297-2.482-2.101-4.521-4.529-5.115L177.35,28.026z M123.49,339.702c-12.5-31.373-19.029-68.545-19.461-110.519
	c0.688-0.1,1.382-0.218,2.087-0.37c2.574-0.558,4.873-1.477,7.096-2.365c2.009-0.804,3.906-1.562,5.669-1.894
	c2.136-0.401,4.386-0.632,6.768-0.875c2.112-0.217,4.296-0.44,6.521-0.799c0.311-0.05,0.624-0.096,0.935-0.145
	c-5.203,64.969,18.516,122.329,39.747,159.485c13.188,23.079,26.792,41.111,36.459,52.762
	c-11.549-5.264-27.444-14.491-43.356-30.051C148.044,387.418,133.757,365.471,123.49,339.702z M309.744,220.747
	c5.898,63.928-17.465,120.681-38.36,157.303c-13.444,23.565-27.58,42.002-37.134,53.384
	c10.878-39.467,35.325-139.833,25.721-213.985c0.12-0.023,0.243-0.046,0.361-0.069c1.996-0.384,3.805-0.749,5.382-0.648
	c1.743,0.113,3.686,0.64,5.742,1.197c2.351,0.637,4.781,1.296,7.467,1.531c0.74,0.065,1.491,0.097,2.297,0.097
	c1.934,0,3.753-0.184,5.512-0.361c2.134-0.218,4.176-0.396,5.684-0.227c4.901,0.546,9.55,0.013,13.439,0.541
	C307.016,219.668,308.338,220.159,309.744,220.747z M252.009,218.228c9.842,75.168-16.338,178.637-26.475,214.701
	c-10.14-36.076-36.335-139.6-26.466-214.775c3.46-0.215,6.348-1.746,8.899-3.11c1.445-0.772,3.244-1.734,4.096-1.752
	c0.673,0.032,2.569,1.125,3.702,1.778c2.632,1.519,5.908,3.407,9.769,3.407c3.892,0,7.179-1.938,9.819-3.495
	c1.118-0.659,2.989-1.763,3.636-1.809c0.812,0.017,2.662,1.047,4.014,1.799C245.575,216.404,248.488,218.013,252.009,218.228z
	 M216.82,431.444c-9.519-11.339-23.594-29.693-37.022-53.193c-20.861-36.508-44.182-92.998-38.553-156.673
	c0.36-0.048,0.714-0.096,1.078-0.144l3.091-0.415c1.246-0.168,3.146,0.128,5.114,0.465c1.908,0.327,4.07,0.697,6.338,0.697
	c0.729,0,1.444-0.039,2.126-0.115c2.997-0.334,5.652-1.414,7.995-2.368c1.858-0.756,3.613-1.471,5.031-1.596
	c0.244-0.021,0.489-0.03,0.735-0.03c1.355,0,2.953,0.274,4.643,0.563c2.417,0.414,5.261,0.89,8.121,0.698
	c1.835-0.119,3.641-0.3,5.406-0.482C181.801,292.868,206.012,392.232,216.82,431.444z M327.778,339.556
	c-10.178,25.76-24.352,47.685-42.127,65.166c-15.808,15.546-31.623,24.653-42.106,29.556c-0.659,0.308-1.301,0.6-1.935,0.884
	c9.676-11.646,23.353-29.746,36.607-52.941c21.125-36.971,44.702-93.947,39.813-158.515c0.237,0.047,0.473,0.097,0.715,0.136
	c4.915,0.792,9.218,1.537,13.154,2.276c1.603,0.302,3.389,1.117,5.281,1.98c2.163,0.986,4.613,2.105,7.347,2.697
	c0.84,0.182,1.672,0.308,2.496,0.413C346.408,272.317,339.951,308.747,327.778,339.556z M378.795,200.835
	c-1.042,2.629-2.119,5.347-2.704,8.281c-0.561,2.82-2.274,4.923-5.914,7.259l-1.099,0.713c-2.563,1.67-5.47,3.563-7.597,3.563
	c-0.268,0-0.52-0.03-0.769-0.092c-2.803-0.693-5.481-0.821-8.072-0.944c-2.01-0.096-3.908-0.186-5.576-0.547
	c-1.468-0.317-3.137-1.079-4.904-1.886c-2.347-1.071-5.008-2.285-8.046-2.856c-4.04-0.76-8.442-1.521-13.46-2.331
	c-1.407-0.227-3.092-0.953-4.877-1.722c-2.424-1.045-5.172-2.229-8.305-2.653c-4.935-0.67-9.657-0.122-13.726-0.576
	c-0.883-0.099-1.788-0.146-2.766-0.146c-1.905,0-3.71,0.183-5.455,0.359c-2.051,0.208-4.022,0.383-5.551,0.251
	c-1.625-0.144-3.448-0.638-5.378-1.16c-2.417-0.655-5.158-1.397-8.099-1.59c-2.976-0.194-5.924,0.355-8.435,0.84
	c-1.949,0.376-3.726,0.722-5.309,0.664c-0.789-0.034-2.596-1.04-3.916-1.774c-2.586-1.438-5.804-3.229-9.591-3.311l-0.249-0.002
	c-3.853,0-7.118,1.925-9.741,3.472c-1.14,0.673-3.049,1.799-3.721,1.832c-0.683-0.019-2.619-1.135-3.776-1.802
	c-2.614-1.508-5.868-3.384-9.689-3.384l-0.249,0.002c-3.736,0.08-6.938,1.792-9.511,3.167c-1.41,0.753-3.164,1.691-4.006,1.728
	c-2.714,0.116-5.342,0.389-7.885,0.652c-1.966,0.204-3.824,0.396-5.685,0.518c-1.588,0.101-3.359-0.216-5.313-0.551
	c-2.013-0.345-4.293-0.736-6.67-0.736c-0.608,0-1.21,0.026-1.787,0.077c-3.218,0.283-6.026,1.426-8.504,2.435
	c-1.777,0.724-3.455,1.407-4.798,1.557c-1.306,0.144-3.168-0.151-5.111-0.484c-1.89-0.323-4.033-0.689-6.265-0.689
	c-0.858,0-1.695,0.055-2.488,0.162l-3.063,0.411c-3.437,0.458-6.991,0.933-10.476,1.493c-1.883,0.304-3.802,0.501-5.834,0.709
	c-2.523,0.258-5.132,0.525-7.762,1.02c-2.914,0.548-5.566,1.608-7.907,2.544c-1.846,0.737-3.589,1.435-5.182,1.779
	c-1.697,0.368-3.615,0.481-5.646,0.602c-2.587,0.153-5.264,0.312-8.038,0.998c-2.837,0.699-5.342,0.056-9.008-2.296
	c-2.65-1.702-3.916-3.739-4.667-7.517c-0.523-2.629-1.344-5.082-2.137-7.455c-1.078-3.224-2.096-6.269-2.096-9.064
	c0-1.023,0.925-2.757,1.819-4.434c1.213-2.274,2.588-4.852,3.048-7.917c0.396-2.632,0.229-5.138,0.081-7.35
	c-0.141-2.11-0.274-4.104,0.156-5.513c0.812-2.659,0.942-5.366,1.058-7.755c0.106-2.193,0.206-4.266,0.787-5.512
	c0.749-1.605,2.237-3.32,3.813-5.135c1.459-1.681,2.968-3.419,4.263-5.454c0.596-0.938,2.247-2.001,3.844-3.029
	c2.153-1.387,4.593-2.958,6.555-5.354c1.725-2.108,2.871-4.438,3.881-6.494c0.939-1.909,1.826-3.714,2.919-4.785
	c2.043-2.005,3.456-4.403,4.703-6.521c1.098-1.864,2.135-3.625,3.241-4.512c0.989-0.793,2.868-1.381,4.857-2.002
	c2.441-0.763,5.208-1.628,7.732-3.295c1.391-0.918,3.345-1.564,5.415-2.249c2.126-0.703,4.536-1.5,6.865-2.767
	c2.5-1.36,4.495-3.208,6.255-4.839c1.547-1.433,3.008-2.786,4.374-3.393c2.568-1.141,4.744-2.811,6.664-4.284
	c1.732-1.33,3.368-2.586,4.821-3.104c0.862-0.306,2.805-0.245,4.93-0.093c1.208,0.085,2.458,0.174,3.77,0.174
	c1.94,0,3.627-0.205,5.16-0.628c1.564-0.432,3.58-0.438,5.714-0.445c2.307-0.007,4.922-0.016,7.61-0.558
	c3.171-0.639,5.768-2.241,8.059-3.655c1.618-0.998,3.291-2.031,4.419-2.18c0.087-0.011,0.187-0.017,0.296-0.017
	c1.059,0,2.699,0.521,4.285,1.026c2.372,0.755,5.06,1.61,8.039,1.61c0.324,0,0.647-0.01,0.97-0.031
	c2.679-0.174,5.175-0.838,7.377-1.423c2.092-0.556,4.067-1.081,5.771-1.081c3.176,0,6.039-0.935,8.565-1.758
	c1.808-0.59,3.515-1.147,4.723-1.147c0.071,0,0.142,0.002,0.212,0.007c1.749,0.113,3.503,0.176,5.201,0.235
	c2.937,0.104,5.711,0.202,8.308,0.544c2.565,0.338,5.196,0.974,7.982,1.647c1.708,0.412,3.473,0.839,5.24,1.195
	c2.415,0.486,4.879,1.301,7.488,2.163c1.757,0.581,3.574,1.182,5.424,1.691c2.229,0.614,4.432,0.991,6.563,1.356
	c2.43,0.416,4.726,0.809,6.65,1.493c4.751,1.691,8.977,3.354,12.558,4.944c1.541,0.685,3.176,2.051,4.907,3.498
	c1.86,1.555,3.784,3.163,6.117,4.433c2.334,1.27,4.563,2.858,6.924,4.541c1.32,0.941,2.686,1.915,4.091,2.843
	c2.47,1.632,5.172,2.531,7.556,3.324c2.006,0.668,3.9,1.298,4.926,2.12c0.508,0.488,1.187,2.691,1.593,4.008
	c0.913,2.96,1.947,6.314,4.569,8.886c1.82,1.785,3.817,3.179,5.58,4.409c1.809,1.262,3.517,2.453,4.589,3.764
	c1.343,1.64,2.76,3.085,4.131,4.482c1.773,1.808,3.448,3.515,4.571,5.281c1.321,2.076,2.314,4.54,3.366,7.147
	c0.618,1.533,1.257,3.117,1.993,4.696c0.911,1.953,1.975,3.718,3.004,5.423c1.297,2.15,2.523,4.181,3.107,6.097
	c0.436,1.428,0.307,3.5,0.171,5.693c-0.139,2.242-0.296,4.784,0.096,7.396c0.481,3.2,2.051,5.894,3.436,8.27
	c0.843,1.446,1.999,3.429,1.999,4.312C381.176,194.827,380.02,197.746,378.795,200.835z"/>
<g>
</g>
<g>
</g>
<g>
</g>
<g>
</g>
<g>
</g>
<g>
</g>
<g>
</g>
<g>
</g>
<g>
</g>
<g>
</g>
<g>
</g>
<g>
</g>
<g>
</g>
<g>
</g>
<g>
</g>
</svg>
